/* XPM */
static char *_e952bf0636e4c26e10613d753f40d0a[] = {
/* columns rows colors chars-per-pixel */
"32 32 5 1 ",
"  c #371E07",
". c #6A4019",
"X c #7B5531",
"o c #956935",
"O c #C3963B",
/* pixels */
"OOOOOOOOOOOOO OOOOOOOOOOOOOOOOOO",
"OOooooOOOOOoo oOOOOOOOooooooOOOO",
"ooooooooooooo ooooooooXooooooooo",
"ooooooooXXXXo .ooooooXXXXXXooooo",
"ooooooooooooo .....ooooooXXooooo",
"ooooo........ .......oooooooo...",
"                                ",
"oooOOOOOOOOOOOOOO ooOOOOOOOOOOOO",
"oooooOOOOOOoooooO oooooOOooooooo",
"ooooooooooooooooO oooooooooooooo",
"ooooooooooooooooo ooooooXXXXXXoo",
"oXXXXXXXooooooooo oooooooooooXXo",
"oXXoooooooooooooo .ooooooooooooo",
"oooooooooooooooo. ..oooooooooooo",
"ooooooooooooooo.. ...ooooooooooo",
".......ooooooo... .........ooooo",
"                                ",
"oOOOOOOO OOOOOOOOOOOOOooOOooOOOO",
"oooooooO OOOOOOOOoooooooooooooOO",
"oooooooo Ooooooooooooooooooooooo",
"ooXXXooo ooooooooooooooooooooooo",
"oooooooo ooooXXXXooooooooooooooo",
"oooooooo .ooXXXXXooooooooooooooo",
"ooooooo. ..ooooooooooooooooooooo",
"........ ...............oo...ooo",
"                                ",
"OOOOOOOOOOOOOO OOOOOOOOOOOOOOOOO",
"oooooooooooooO OOOOoooooooooOOOo",
"ooXXXXXXoooooo OOooooooooooooooo",
"oooXXXXooooooo OoooooXXXXXXooooo",
"oooooooooooooo oooXXXXXXoooooooo",
"oooooooooooooo ooooooooooooooooo"
};
